<svg xmlns="http://www.w3.org/2000/svg" width="20" height="19" viewBox="0 0 20 19" fill="none">
  <path d="M18.947 5.54583C18.9369 4.7569 18.7951 3.97581 18.528 3.2375C18.2964 2.61474 17.9425 2.04917 17.4892 1.57691C17.0358 1.10465 16.4929 0.736095 15.895 0.494792C15.1953 0.221205 14.4562 0.0732722 13.709 0.0572917C12.747 0.0125001 12.442 0 10 0C7.55801 0 7.24501 6.98492e-08 6.29001 0.0572917C5.54317 0.0733897 4.80436 0.221321 4.10501 0.494792C3.50707 0.735927 2.96403 1.10442 2.51064 1.5767C2.05725 2.04898 1.7035 2.61464 1.47201 3.2375C1.20884 3.96576 1.06713 4.73553 1.05301 5.51354C1.01001 6.51667 0.997009 6.83438 0.997009 9.37813C0.997009 11.9219 0.997009 12.2469 1.05301 13.2427C1.06801 14.0219 1.20901 14.7906 1.47201 15.5208C1.70389 16.1435 2.05791 16.7089 2.51145 17.181C2.96499 17.6531 3.50807 18.0214 4.10601 18.2625C4.80344 18.5471 5.54238 18.7056 6.29101 18.7312C7.25401 18.776 7.55901 18.7896 10.001 18.7896C12.443 18.7896 12.756 18.7896 13.711 18.7312C14.4582 18.7159 15.1974 18.5683 15.897 18.2948C16.4947 18.0532 17.0375 17.6846 17.4909 17.2123C17.9442 16.7401 18.2981 16.1747 18.53 15.5521C18.793 14.8229 18.934 14.0542 18.949 13.274C18.992 12.2719 19.005 11.9542 19.005 9.40938C19.003 6.86563 19.003 6.54271 18.947 5.54583ZM9.99401 14.1885C7.44001 14.1885 5.37101 12.0333 5.37101 9.37292C5.37101 6.7125 7.44001 4.55729 9.99401 4.55729C11.2201 4.55729 12.396 5.06465 13.263 5.96776C14.1299 6.87086 14.617 8.09573 14.617 9.37292C14.617 10.6501 14.1299 11.875 13.263 12.7781C12.396 13.6812 11.2201 14.1885 9.99401 14.1885ZM14.801 5.50208C14.6594 5.50222 14.5192 5.47327 14.3883 5.41689C14.2575 5.3605 14.1386 5.27779 14.0385 5.17349C13.9383 5.0692 13.8589 4.94535 13.8048 4.80905C13.7507 4.67275 13.7229 4.52667 13.723 4.37917C13.723 4.23177 13.7509 4.08582 13.805 3.94965C13.8592 3.81347 13.9385 3.68974 14.0386 3.58551C14.1387 3.48129 14.2574 3.39861 14.3882 3.34221C14.5189 3.2858 14.659 3.25677 14.8005 3.25677C14.942 3.25677 15.0821 3.2858 15.2129 3.34221C15.3436 3.39861 15.4624 3.48129 15.5624 3.58551C15.6625 3.68974 15.7418 3.81347 15.796 3.94965C15.8501 4.08582 15.878 4.23177 15.878 4.37917C15.878 5 15.396 5.50208 14.801 5.50208Z" fill="white"/>
</svg>