<svg xmlns="http://www.w3.org/2000/svg" width="22" height="19" viewBox="0 0 22 19" fill="none">
  <path d="M6.92 18.8348C8.60914 18.8455 10.2836 18.5206 11.8462 17.8791C13.4088 17.2376 14.8285 16.2922 16.0229 15.0978C17.2174 13.9033 18.1627 12.4837 18.8043 10.921C19.4458 9.35842 19.7706 7.68398 19.76 5.99484V5.40484C20.6356 4.76333 21.3935 3.97501 22 3.07484C21.1755 3.43544 20.3031 3.67459 19.41 3.78484C20.3569 3.22062 21.0674 2.33251 21.41 1.28484C20.5275 1.81428 19.5598 2.18648 18.55 2.38484C17.8699 1.66021 16.97 1.1799 15.9895 1.01823C15.0089 0.856557 14.0024 1.02254 13.1257 1.4905C12.249 1.95845 11.551 2.70229 11.1396 3.60692C10.7282 4.51155 10.6264 5.52654 10.85 6.49484C9.05603 6.40679 7.30071 5.94186 5.69836 5.13035C4.096 4.31883 2.68254 3.17892 1.55 1.78484C0.978923 2.77602 0.805827 3.94717 1.06576 5.06116C1.32569 6.17516 1.99923 7.14876 2.95 7.78484C2.24861 7.75779 1.56345 7.56595 0.95 7.22484V7.27484C0.943767 8.31068 1.29272 9.31736 1.9387 10.1271C2.58469 10.9369 3.48867 11.5008 4.5 11.7248C3.84764 11.9003 3.16429 11.9276 2.5 11.8048C2.79278 12.6882 3.35168 13.4594 4.10005 14.0126C4.84841 14.5658 5.74959 14.874 6.68 14.8948C5.08921 16.1754 3.11209 16.8802 1.07 16.8948C0.711953 16.8845 0.354747 16.8544 0 16.8048C2.06696 18.1217 4.4692 18.816 6.92 18.8048" fill="white"/>
</svg>